<mxfile host="app.diagrams.net" modified="2022-05-30T08:25:02.433Z" agent="5.0 (X11; Linux x86_64) AppleWebKit/537.36 (KHTML, like Gecko) Chrome/101.0.4951.64 Safari/537.36" etag="MwMBDrl-vQAIU8ajr2ZM" version="18.0.3" type="github">
  <diagram id="SUjVGLZJdwDgN1-7lfVK" name="Page-1">
    <mxGraphModel dx="1718" dy="845" grid="1" gridSize="10" guides="1" tooltips="1" connect="1" arrows="1" fold="1" page="1" pageScale="1" pageWidth="827" pageHeight="1169" math="0" shadow="0">
      <root>
        <mxCell id="0" />
        <mxCell id="1" parent="0" />
        <mxCell id="KKFR9cJwRMnsPI8i3_yQ-1" value="" style="rounded=0;whiteSpace=wrap;html=1;" vertex="1" parent="1">
          <mxGeometry x="50" y="40" width="1020" height="670" as="geometry" />
        </mxCell>
        <mxCell id="KKFR9cJwRMnsPI8i3_yQ-2" value="&lt;font style=&quot;font-size: 24px;&quot;&gt;導入文件&lt;/font&gt;" style="rounded=1;whiteSpace=wrap;html=1;" vertex="1" parent="1">
          <mxGeometry x="130" y="140" width="120" height="60" as="geometry" />
        </mxCell>
        <mxCell id="KKFR9cJwRMnsPI8i3_yQ-5" value="" style="shape=table;startSize=0;container=1;collapsible=0;childLayout=tableLayout;fontSize=24;" vertex="1" parent="1">
          <mxGeometry x="80" y="230" width="200" height="370" as="geometry" />
        </mxCell>
        <mxCell id="KKFR9cJwRMnsPI8i3_yQ-6" value="" style="shape=tableRow;horizontal=0;startSize=0;swimlaneHead=0;swimlaneBody=0;top=0;left=0;bottom=0;right=0;collapsible=0;dropTarget=0;fillColor=none;points=[[0,0.5],[1,0.5]];portConstraint=eastwest;fontSize=24;" vertex="1" parent="KKFR9cJwRMnsPI8i3_yQ-5">
          <mxGeometry width="200" height="93" as="geometry" />
        </mxCell>
        <mxCell id="KKFR9cJwRMnsPI8i3_yQ-7" value="path1" style="shape=partialRectangle;html=1;whiteSpace=wrap;connectable=0;overflow=hidden;fillColor=none;top=0;left=0;bottom=0;right=0;pointerEvents=1;fontSize=24;" vertex="1" parent="KKFR9cJwRMnsPI8i3_yQ-6">
          <mxGeometry width="200" height="93" as="geometry">
            <mxRectangle width="200" height="93" as="alternateBounds" />
          </mxGeometry>
        </mxCell>
        <mxCell id="KKFR9cJwRMnsPI8i3_yQ-8" value="" style="shape=tableRow;horizontal=0;startSize=0;swimlaneHead=0;swimlaneBody=0;top=0;left=0;bottom=0;right=0;collapsible=0;dropTarget=0;fillColor=none;points=[[0,0.5],[1,0.5]];portConstraint=eastwest;fontSize=24;" vertex="1" parent="KKFR9cJwRMnsPI8i3_yQ-5">
          <mxGeometry y="93" width="200" height="92" as="geometry" />
        </mxCell>
        <mxCell id="KKFR9cJwRMnsPI8i3_yQ-9" value="&lt;span style=&quot;&quot;&gt;path2&lt;/span&gt;" style="shape=partialRectangle;html=1;whiteSpace=wrap;connectable=0;overflow=hidden;fillColor=none;top=0;left=0;bottom=0;right=0;pointerEvents=1;fontSize=24;" vertex="1" parent="KKFR9cJwRMnsPI8i3_yQ-8">
          <mxGeometry width="200" height="92" as="geometry">
            <mxRectangle width="200" height="92" as="alternateBounds" />
          </mxGeometry>
        </mxCell>
        <mxCell id="KKFR9cJwRMnsPI8i3_yQ-10" value="" style="shape=tableRow;horizontal=0;startSize=0;swimlaneHead=0;swimlaneBody=0;top=0;left=0;bottom=0;right=0;collapsible=0;dropTarget=0;fillColor=none;points=[[0,0.5],[1,0.5]];portConstraint=eastwest;fontSize=24;" vertex="1" parent="KKFR9cJwRMnsPI8i3_yQ-5">
          <mxGeometry y="185" width="200" height="93" as="geometry" />
        </mxCell>
        <mxCell id="KKFR9cJwRMnsPI8i3_yQ-11" value="&lt;span style=&quot;&quot;&gt;path3&lt;br&gt;&lt;/span&gt;" style="shape=partialRectangle;html=1;whiteSpace=wrap;connectable=0;overflow=hidden;fillColor=none;top=0;left=0;bottom=0;right=0;pointerEvents=1;fontSize=24;" vertex="1" parent="KKFR9cJwRMnsPI8i3_yQ-10">
          <mxGeometry width="200" height="93" as="geometry">
            <mxRectangle width="200" height="93" as="alternateBounds" />
          </mxGeometry>
        </mxCell>
        <mxCell id="KKFR9cJwRMnsPI8i3_yQ-12" value="" style="shape=tableRow;horizontal=0;startSize=0;swimlaneHead=0;swimlaneBody=0;top=0;left=0;bottom=0;right=0;collapsible=0;dropTarget=0;fillColor=none;points=[[0,0.5],[1,0.5]];portConstraint=eastwest;fontSize=24;" vertex="1" parent="KKFR9cJwRMnsPI8i3_yQ-5">
          <mxGeometry y="278" width="200" height="92" as="geometry" />
        </mxCell>
        <mxCell id="KKFR9cJwRMnsPI8i3_yQ-13" value="&lt;span style=&quot;&quot;&gt;path4&lt;/span&gt;" style="shape=partialRectangle;html=1;whiteSpace=wrap;connectable=0;overflow=hidden;fillColor=none;top=0;left=0;bottom=0;right=0;pointerEvents=1;fontSize=24;" vertex="1" parent="KKFR9cJwRMnsPI8i3_yQ-12">
          <mxGeometry width="200" height="92" as="geometry">
            <mxRectangle width="200" height="92" as="alternateBounds" />
          </mxGeometry>
        </mxCell>
        <mxCell id="KKFR9cJwRMnsPI8i3_yQ-14" value="連接資料庫" style="rounded=1;whiteSpace=wrap;html=1;fontSize=24;" vertex="1" parent="1">
          <mxGeometry x="360" y="140" width="160" height="60" as="geometry" />
        </mxCell>
        <mxCell id="KKFR9cJwRMnsPI8i3_yQ-15" value="公棚" style="rounded=1;whiteSpace=wrap;html=1;fontSize=24;" vertex="1" parent="1">
          <mxGeometry x="590" y="140" width="210" height="60" as="geometry" />
        </mxCell>
        <mxCell id="KKFR9cJwRMnsPI8i3_yQ-16" value="" style="shape=table;startSize=0;container=1;collapsible=0;childLayout=tableLayout;fontSize=24;" vertex="1" parent="1">
          <mxGeometry x="580" y="220" width="240" height="380" as="geometry" />
        </mxCell>
        <mxCell id="KKFR9cJwRMnsPI8i3_yQ-17" value="" style="shape=tableRow;horizontal=0;startSize=0;swimlaneHead=0;swimlaneBody=0;top=0;left=0;bottom=0;right=0;collapsible=0;dropTarget=0;fillColor=none;points=[[0,0.5],[1,0.5]];portConstraint=eastwest;fontSize=24;" vertex="1" parent="KKFR9cJwRMnsPI8i3_yQ-16">
          <mxGeometry width="240" height="95" as="geometry" />
        </mxCell>
        <mxCell id="KKFR9cJwRMnsPI8i3_yQ-18" value="oldpath1" style="shape=partialRectangle;html=1;whiteSpace=wrap;connectable=0;overflow=hidden;fillColor=none;top=0;left=0;bottom=0;right=0;pointerEvents=1;fontSize=24;" vertex="1" parent="KKFR9cJwRMnsPI8i3_yQ-17">
          <mxGeometry width="240" height="95" as="geometry">
            <mxRectangle width="240" height="95" as="alternateBounds" />
          </mxGeometry>
        </mxCell>
        <mxCell id="KKFR9cJwRMnsPI8i3_yQ-19" value="" style="shape=tableRow;horizontal=0;startSize=0;swimlaneHead=0;swimlaneBody=0;top=0;left=0;bottom=0;right=0;collapsible=0;dropTarget=0;fillColor=none;points=[[0,0.5],[1,0.5]];portConstraint=eastwest;fontSize=24;" vertex="1" parent="KKFR9cJwRMnsPI8i3_yQ-16">
          <mxGeometry y="95" width="240" height="95" as="geometry" />
        </mxCell>
        <mxCell id="KKFR9cJwRMnsPI8i3_yQ-20" value="&lt;span style=&quot;&quot;&gt;oldpath2&lt;/span&gt;" style="shape=partialRectangle;html=1;whiteSpace=wrap;connectable=0;overflow=hidden;fillColor=none;top=0;left=0;bottom=0;right=0;pointerEvents=1;fontSize=24;" vertex="1" parent="KKFR9cJwRMnsPI8i3_yQ-19">
          <mxGeometry width="240" height="95" as="geometry">
            <mxRectangle width="240" height="95" as="alternateBounds" />
          </mxGeometry>
        </mxCell>
        <mxCell id="KKFR9cJwRMnsPI8i3_yQ-21" value="" style="shape=tableRow;horizontal=0;startSize=0;swimlaneHead=0;swimlaneBody=0;top=0;left=0;bottom=0;right=0;collapsible=0;dropTarget=0;fillColor=none;points=[[0,0.5],[1,0.5]];portConstraint=eastwest;fontSize=24;" vertex="1" parent="KKFR9cJwRMnsPI8i3_yQ-16">
          <mxGeometry y="190" width="240" height="95" as="geometry" />
        </mxCell>
        <mxCell id="KKFR9cJwRMnsPI8i3_yQ-22" value="&lt;span style=&quot;&quot;&gt;oldpath3&lt;/span&gt;" style="shape=partialRectangle;html=1;whiteSpace=wrap;connectable=0;overflow=hidden;fillColor=none;top=0;left=0;bottom=0;right=0;pointerEvents=1;fontSize=24;" vertex="1" parent="KKFR9cJwRMnsPI8i3_yQ-21">
          <mxGeometry width="240" height="95" as="geometry">
            <mxRectangle width="240" height="95" as="alternateBounds" />
          </mxGeometry>
        </mxCell>
        <mxCell id="KKFR9cJwRMnsPI8i3_yQ-23" value="" style="shape=tableRow;horizontal=0;startSize=0;swimlaneHead=0;swimlaneBody=0;top=0;left=0;bottom=0;right=0;collapsible=0;dropTarget=0;fillColor=none;points=[[0,0.5],[1,0.5]];portConstraint=eastwest;fontSize=24;" vertex="1" parent="KKFR9cJwRMnsPI8i3_yQ-16">
          <mxGeometry y="285" width="240" height="95" as="geometry" />
        </mxCell>
        <mxCell id="KKFR9cJwRMnsPI8i3_yQ-24" value="&lt;span style=&quot;&quot;&gt;oldpath4&lt;/span&gt;" style="shape=partialRectangle;html=1;whiteSpace=wrap;connectable=0;overflow=hidden;fillColor=none;top=0;left=0;bottom=0;right=0;pointerEvents=1;fontSize=24;" vertex="1" parent="KKFR9cJwRMnsPI8i3_yQ-23">
          <mxGeometry width="240" height="95" as="geometry">
            <mxRectangle width="240" height="95" as="alternateBounds" />
          </mxGeometry>
        </mxCell>
        <mxCell id="KKFR9cJwRMnsPI8i3_yQ-25" value="插入" style="rounded=1;whiteSpace=wrap;html=1;fontSize=24;" vertex="1" parent="1">
          <mxGeometry x="360" y="380" width="160" height="60" as="geometry" />
        </mxCell>
        <mxCell id="KKFR9cJwRMnsPI8i3_yQ-26" value="刪除" style="rounded=1;whiteSpace=wrap;html=1;fontSize=24;" vertex="1" parent="1">
          <mxGeometry x="880" y="380" width="120" height="60" as="geometry" />
        </mxCell>
        <mxCell id="KKFR9cJwRMnsPI8i3_yQ-27" value="刪除公棚" style="rounded=1;whiteSpace=wrap;html=1;fontSize=24;" vertex="1" parent="1">
          <mxGeometry x="870" y="140" width="120" height="60" as="geometry" />
        </mxCell>
        <mxCell id="KKFR9cJwRMnsPI8i3_yQ-29" value="輸入名字" style="rounded=0;whiteSpace=wrap;html=1;fontSize=24;" vertex="1" parent="1">
          <mxGeometry x="850" y="60" width="190" height="60" as="geometry" />
        </mxCell>
      </root>
    </mxGraphModel>
  </diagram>
</mxfile>
